<svg width="191" height="38" viewBox="0 0 191 38" fill="none" xmlns="http://www.w3.org/2000/svg">
<rect x="1" y="1" width="189" height="36" fill="#FFEFEC"/>
<rect x="1" y="1" width="189" height="36" stroke="#FF3D12"/>
<path fill-rule="evenodd" clip-rule="evenodd" d="M32.68 19.1823C32.68 18.615 32.6291 18.0695 32.5345 17.5459H25V20.6404H29.3055C29.12 21.6404 28.5564 22.4877 27.7091 23.055V25.0623H30.2945C31.8073 23.6695 32.68 21.6186 32.68 19.1823Z" fill="#4285F4"/>
<path fill-rule="evenodd" clip-rule="evenodd" d="M25 26.9995C27.16 26.9995 28.9709 26.2832 30.2945 25.0613L27.7091 23.0541C26.9927 23.5341 26.0763 23.8177 25 23.8177C22.9163 23.8177 21.1527 22.4104 20.5236 20.5195H17.8509V22.5923C19.1672 25.2068 21.8727 26.9995 25 26.9995Z" fill="#34A853"/>
<path fill-rule="evenodd" clip-rule="evenodd" d="M20.5236 20.5197C20.3636 20.0397 20.2727 19.527 20.2727 18.9997C20.2727 18.4724 20.3636 17.9597 20.5236 17.4797V15.407H17.8509C17.3091 16.487 17 17.7088 17 18.9997C17 20.2906 17.3091 21.5124 17.8509 22.5924L20.5236 20.5197Z" fill="#FBBC05"/>
<path fill-rule="evenodd" clip-rule="evenodd" d="M25 14.1818C26.1745 14.1818 27.2291 14.5855 28.0582 15.3782L30.3527 13.0836C28.9672 11.7927 27.1563 11 25 11C21.8727 11 19.1672 12.7927 17.8509 15.4073L20.5236 17.48C21.1527 15.5891 22.9163 14.1818 25 14.1818Z" fill="#EA4335"/>
<path d="M60.8762 22.516H60.8202C60.7176 22.992 60.4376 23.3887 59.9802 23.706C59.5322 24.014 58.9349 24.168 58.1882 24.168C57.6096 24.168 57.0729 24.0607 56.5782 23.846C56.0836 23.622 55.6542 23.3 55.2902 22.88C54.9356 22.4507 54.6556 21.9233 54.4502 21.298C54.2542 20.6633 54.1562 19.9353 54.1562 19.114C54.1562 18.302 54.2589 17.5833 54.4642 16.958C54.6696 16.3233 54.9589 15.7913 55.3322 15.362C55.7056 14.9327 56.1536 14.6107 56.6762 14.396C57.1989 14.172 57.7822 14.06 58.4262 14.06C59.3036 14.06 60.0456 14.256 60.6523 14.648C61.2589 15.0307 61.7303 15.5673 62.0662 16.258L60.7782 17.014C60.5916 16.5567 60.3022 16.188 59.9102 15.908C59.5182 15.6187 59.0236 15.474 58.4262 15.474C57.6516 15.474 57.0262 15.7213 56.5502 16.216C56.0836 16.7107 55.8502 17.4107 55.8502 18.316V19.912C55.8502 20.8173 56.0836 21.5173 56.5502 22.012C57.0262 22.5067 57.6516 22.754 58.4262 22.754C58.7342 22.754 59.0282 22.7167 59.3082 22.642C59.5882 22.558 59.8309 22.4413 60.0362 22.292C60.2509 22.1333 60.4189 21.942 60.5403 21.718C60.6709 21.4847 60.7363 21.214 60.7363 20.906V20.15H58.7202V18.792H62.2622V24H60.8762V22.516ZM67.3453 24.168C66.8413 24.168 66.3793 24.0793 65.9593 23.902C65.5487 23.7247 65.1987 23.4727 64.9093 23.146C64.62 22.81 64.396 22.4087 64.2373 21.942C64.0787 21.466 63.9993 20.9387 63.9993 20.36C63.9993 19.7813 64.0787 19.2587 64.2373 18.792C64.396 18.316 64.62 17.9147 64.9093 17.588C65.1987 17.252 65.5487 16.9953 65.9593 16.818C66.3793 16.6407 66.8413 16.552 67.3453 16.552C67.8493 16.552 68.3067 16.6407 68.7173 16.818C69.1373 16.9953 69.492 17.252 69.7813 17.588C70.0707 17.9147 70.2947 18.316 70.4533 18.792C70.612 19.2587 70.6913 19.7813 70.6913 20.36C70.6913 20.9387 70.612 21.466 70.4533 21.942C70.2947 22.4087 70.0707 22.81 69.7813 23.146C69.492 23.4727 69.1373 23.7247 68.7173 23.902C68.3067 24.0793 67.8493 24.168 67.3453 24.168ZM67.3453 22.908C67.868 22.908 68.288 22.7493 68.6053 22.432C68.9227 22.1053 69.0813 21.62 69.0813 20.976V19.744C69.0813 19.1 68.9227 18.6193 68.6053 18.302C68.288 17.9753 67.868 17.812 67.3453 17.812C66.8227 17.812 66.4027 17.9753 66.0853 18.302C65.768 18.6193 65.6093 19.1 65.6093 19.744V20.976C65.6093 21.62 65.768 22.1053 66.0853 22.432C66.4027 22.7493 66.8227 22.908 67.3453 22.908ZM75.3877 24.168C74.8837 24.168 74.4217 24.0793 74.0017 23.902C73.591 23.7247 73.241 23.4727 72.9517 23.146C72.6624 22.81 72.4384 22.4087 72.2797 21.942C72.121 21.466 72.0417 20.9387 72.0417 20.36C72.0417 19.7813 72.121 19.2587 72.2797 18.792C72.4384 18.316 72.6624 17.9147 72.9517 17.588C73.241 17.252 73.591 16.9953 74.0017 16.818C74.4217 16.6407 74.8837 16.552 75.3877 16.552C75.8917 16.552 76.349 16.6407 76.7597 16.818C77.1797 16.9953 77.5344 17.252 77.8237 17.588C78.113 17.9147 78.337 18.316 78.4957 18.792C78.6544 19.2587 78.7337 19.7813 78.7337 20.36C78.7337 20.9387 78.6544 21.466 78.4957 21.942C78.337 22.4087 78.113 22.81 77.8237 23.146C77.5344 23.4727 77.1797 23.7247 76.7597 23.902C76.349 24.0793 75.8917 24.168 75.3877 24.168ZM75.3877 22.908C75.9104 22.908 76.3304 22.7493 76.6477 22.432C76.965 22.1053 77.1237 21.62 77.1237 20.976V19.744C77.1237 19.1 76.965 18.6193 76.6477 18.302C76.3304 17.9753 75.9104 17.812 75.3877 17.812C74.865 17.812 74.445 17.9753 74.1277 18.302C73.8104 18.6193 73.6517 19.1 73.6517 19.744V20.976C73.6517 21.62 73.8104 22.1053 74.1277 22.432C74.445 22.7493 74.865 22.908 75.3877 22.908ZM86.958 24.686C86.958 25.442 86.6687 26.0113 86.09 26.394C85.5114 26.7767 84.5687 26.968 83.262 26.968C82.6647 26.968 82.156 26.926 81.736 26.842C81.3254 26.7673 80.9847 26.6553 80.714 26.506C80.4527 26.3567 80.2614 26.1747 80.14 25.96C80.0187 25.7453 79.958 25.498 79.958 25.218C79.958 24.8167 80.0654 24.504 80.28 24.28C80.504 24.056 80.812 23.902 81.204 23.818V23.664C80.6534 23.4867 80.378 23.1133 80.378 22.544C80.378 22.1707 80.504 21.886 80.756 21.69C81.008 21.4847 81.3114 21.34 81.666 21.256V21.2C81.2367 20.9947 80.9054 20.71 80.672 20.346C80.448 19.9727 80.336 19.5387 80.336 19.044C80.336 18.2973 80.5834 17.6953 81.078 17.238C81.582 16.7807 82.3007 16.552 83.234 16.552C83.7474 16.552 84.186 16.6267 84.55 16.776V16.58C84.55 16.2533 84.6247 16.0013 84.774 15.824C84.9327 15.6373 85.1754 15.544 85.502 15.544H86.622V16.776H85.138V17.07C85.4647 17.2847 85.7167 17.5647 85.894 17.91C86.0714 18.246 86.16 18.624 86.16 19.044C86.16 19.7813 85.908 20.3787 85.404 20.836C84.9 21.284 84.1814 21.508 83.248 21.508C82.8934 21.508 82.576 21.4707 82.296 21.396C82.1094 21.4613 81.946 21.5547 81.806 21.676C81.666 21.788 81.596 21.9373 81.596 22.124C81.596 22.32 81.6847 22.46 81.862 22.544C82.0394 22.628 82.2914 22.67 82.618 22.67H84.41C85.306 22.67 85.9547 22.852 86.356 23.216C86.7574 23.5707 86.958 24.0607 86.958 24.686ZM85.53 24.854C85.53 24.602 85.432 24.4013 85.236 24.252C85.0494 24.1027 84.704 24.028 84.2 24.028H81.736C81.4 24.224 81.232 24.504 81.232 24.868C81.232 25.1667 81.3487 25.4047 81.582 25.582C81.8247 25.7687 82.2307 25.862 82.8 25.862H83.752C84.9374 25.862 85.53 25.526 85.53 24.854ZM83.248 20.402C83.696 20.402 84.0414 20.304 84.284 20.108C84.536 19.9027 84.662 19.59 84.662 19.17V18.89C84.662 18.47 84.536 18.162 84.284 17.966C84.0414 17.7607 83.696 17.658 83.248 17.658C82.8 17.658 82.45 17.7607 82.198 17.966C81.9554 18.162 81.834 18.47 81.834 18.89V19.17C81.834 19.59 81.9554 19.9027 82.198 20.108C82.45 20.304 82.8 20.402 83.248 20.402ZM89.7876 24C89.2649 24 88.8729 23.8693 88.6116 23.608C88.3596 23.3373 88.2336 22.964 88.2336 22.488V13.64H89.7596V22.754H90.7676V24H89.7876ZM95.2218 24.168C94.6991 24.168 94.2324 24.0793 93.8218 23.902C93.4111 23.7247 93.0611 23.4727 92.7718 23.146C92.4824 22.81 92.2584 22.4087 92.0998 21.942C91.9504 21.466 91.8758 20.9387 91.8758 20.36C91.8758 19.7813 91.9504 19.2587 92.0998 18.792C92.2584 18.316 92.4824 17.9147 92.7718 17.588C93.0611 17.252 93.4111 16.9953 93.8218 16.818C94.2324 16.6407 94.6991 16.552 95.2218 16.552C95.7538 16.552 96.2204 16.6453 96.6218 16.832C97.0324 17.0187 97.3731 17.28 97.6438 17.616C97.9144 17.9427 98.1151 18.3253 98.2458 18.764C98.3858 19.2027 98.4558 19.674 98.4558 20.178V20.752H93.4578V20.99C93.4578 21.55 93.6211 22.012 93.9478 22.376C94.2838 22.7307 94.7598 22.908 95.3758 22.908C95.8238 22.908 96.2018 22.81 96.5098 22.614C96.8178 22.418 97.0791 22.152 97.2938 21.816L98.1898 22.698C97.9191 23.146 97.5271 23.5053 97.0138 23.776C96.5004 24.0373 95.9031 24.168 95.2218 24.168ZM95.2218 17.742C94.9604 17.742 94.7178 17.7887 94.4938 17.882C94.2791 17.9753 94.0924 18.106 93.9338 18.274C93.7844 18.442 93.6678 18.6427 93.5838 18.876C93.4998 19.1093 93.4578 19.366 93.4578 19.646V19.744H96.8458V19.604C96.8458 19.044 96.7011 18.596 96.4118 18.26C96.1224 17.9147 95.7258 17.742 95.2218 17.742ZM111.177 22.894V24.084H99.697V22.894H104.737V20.822H101.335V16.79H108.111V15.082H101.293V13.906H109.539V17.924H102.763V19.646H109.875V20.822H106.151V22.894H111.177ZM126.324 13.178V25.442H124.896V13.178H126.324ZM120.542 18.19C120.682 18.19 120.803 18.2553 120.906 18.386L123.468 21.648L122.376 22.572L119.8 19.17C119.763 19.114 119.716 19.086 119.66 19.086C119.604 19.086 119.562 19.114 119.534 19.17C119.282 19.6927 118.955 20.2293 118.554 20.78C118.153 21.3213 117.616 21.9887 116.944 22.782L115.852 21.872C116.627 21.0133 117.229 20.2573 117.658 19.604C118.097 18.9507 118.414 18.2973 118.61 17.644C118.815 16.9813 118.918 16.2393 118.918 15.418V13.99H120.346V15.404C120.346 16.5427 120.169 17.5787 119.814 18.512L119.884 18.554L120.15 18.344C120.281 18.2413 120.411 18.19 120.542 18.19ZM140.234 17.406H138.33V20.57H136.916V13.178H138.33V16.216H140.234V17.406ZM129.342 20.374L128.292 19.464C129.03 18.904 129.608 18.4 130.028 17.952C130.458 17.4947 130.77 17.042 130.966 16.594C131.172 16.146 131.274 15.6607 131.274 15.138V15.124H128.698V13.948H135.25V15.124H132.688V15.208C132.688 15.9827 132.511 16.6967 132.156 17.35L132.24 17.392L132.534 17.182C132.656 17.0887 132.782 17.042 132.912 17.042C133.062 17.042 133.202 17.0933 133.332 17.196L135.698 19.198L134.648 20.122L132.198 17.966C132.114 17.9007 132.04 17.868 131.974 17.868C131.9 17.868 131.834 17.896 131.778 17.952C131.526 18.3067 131.209 18.666 130.826 19.03C130.453 19.394 129.958 19.842 129.342 20.374ZM130.322 21.256H138.33V26.072H136.944V22.46H130.322V21.256ZM152.857 19.282H150.967V25.456H149.553V13.192H150.967V18.092H152.857V19.282ZM146.809 15.068H142.721V13.864H146.809V15.068ZM140.915 16.454H148.405V17.616H146.515V17.7C147.308 18.1387 147.705 18.918 147.705 20.038C147.705 20.6353 147.574 21.158 147.313 21.606C147.061 22.0447 146.706 22.3853 146.249 22.628C145.801 22.8707 145.292 22.992 144.723 22.992C144.154 22.992 143.64 22.8707 143.183 22.628C142.735 22.3853 142.38 22.0447 142.119 21.606C141.858 21.158 141.727 20.6353 141.727 20.038C141.727 18.918 142.124 18.1433 142.917 17.714V17.616H140.915V16.454ZM146.333 19.464C146.333 18.9227 146.188 18.5073 145.899 18.218C145.61 17.9193 145.218 17.77 144.723 17.77C144.228 17.77 143.832 17.9193 143.533 18.218C143.244 18.5167 143.099 18.932 143.099 19.464V20.108C143.099 20.64 143.248 21.0553 143.547 21.354C143.846 21.6527 144.238 21.802 144.723 21.802C145.208 21.802 145.596 21.6527 145.885 21.354C146.184 21.0553 146.333 20.64 146.333 20.108V19.464ZM162.763 13.178H164.191V25.442H162.763V13.178ZM154.083 21.844C155.334 21.2093 156.286 20.626 156.939 20.094C157.593 19.562 158.05 18.9973 158.311 18.4C158.582 17.8027 158.717 17.0653 158.717 16.188V15.362H154.461V14.158H160.159V16.174C160.159 17.2287 159.996 18.1247 159.669 18.862C159.352 19.59 158.82 20.2713 158.073 20.906C157.336 21.5313 156.281 22.208 154.909 22.936L154.083 21.844Z" fill="#121212"/>
</svg>
