<svg width="24" height="24" viewBox="0 0 24 24" fill="none" xmlns="http://www.w3.org/2000/svg">
<path d="M13 18H11V16H13V18ZM13 15H11C11 11.75 14 12 14 10C14 8.90005 13.1 8.00005 12 8.00005C10.9 8.00005 10 8.90005 10 10H8.00005C8.00005 7.79005 9.79005 6.00005 12 6.00005C14.21 6.00005 16 7.79005 16 10C16 12.5 13 12.75 13 15ZM22 12C22 17.18 18.05 21.4501 13 21.9501V19.9401C16.95 19.4501 20 16.08 20 12C20 7.92005 16.95 4.55005 13 4.06005V2.05005C18.05 2.55005 22 6.82005 22 12ZM11 2.05005V4.06005C9.54005 4.24005 8.20005 4.82005 7.09005 5.68005L5.67005 4.26005C7.15005 3.05005 9.00005 2.25005 11 2.05005ZM4.06005 11H2.05005C2.25005 9.00005 3.05005 7.15005 4.26005 5.67005L5.68005 7.10005C4.82005 8.20005 4.24005 9.54005 4.06005 11ZM11 19.9401V21.9501C9.00005 21.75 7.15005 20.96 5.67005 19.74L7.09005 18.32C8.20005 19.18 9.54005 19.76 11 19.9401ZM2.05005 13H4.06005C4.24005 14.46 4.82005 15.8 5.68005 16.91L4.26005 18.33C3.05005 16.85 2.25005 15 2.05005 13Z" fill="black" fill-opacity="0.8"/>
</svg>
